/* XPM */
static char * fill_xpm[] = {
"34 32 133 2",
"  	c None",
". 	c #000000",
"+ 	c #C3C3C3",
"@ 	c #C9C9C9",
"# 	c #BDBDBD",
"$ 	c #9A9A9A",
"% 	c #858585",
"& 	c #878787",
"* 	c #B2B2B2",
"= 	c #C8C8C8",
"- 	c #979797",
"; 	c #434343",
"> 	c #050505",
", 	c #232323",
"' 	c #383838",
") 	c #2D2D2D",
"! 	c #070707",
"~ 	c #A5A5A5",
"{ 	c #323232",
"] 	c #141414",
"^ 	c #515151",
"/ 	c #787878",
"( 	c #808080",
"_ 	c #565656",
": 	c #B0B0B0",
"< 	c #C6C6C6",
"[ 	c #6E6E6E",
"} 	c #0B0B0B",
"| 	c #4C4C4C",
"1 	c #7E7E7E",
"2 	c #616161",
"3 	c #3B3B3B",
"4 	c #C2C2C2",
"5 	c #494949",
"6 	c #1C1C1C",
"7 	c #717171",
"8 	c #343434",
"9 	c #C5C5C5",
"0 	c #2F2F2F",
"a 	c #7D7D7D",
"b 	c #5F5F5F",
"c 	c #020202",
"d 	c #060606",
"e 	c #B3B3B3",
"f 	c #606060",
"g 	c #252525",
"h 	c #6B6B6B",
"i 	c #090909",
"j 	c #8E8E8E",
"k 	c #BEBEBE",
"l 	c #949494",
"m 	c #101010",
"n 	c #7A7A7A",
"o 	c #2A2A2A",
"p 	c #999999",
"q 	c #B8B8B8",
"r 	c #B6B6B6",
"s 	c #6C6C6C",
"t 	c #7F7F7F",
"u 	c #454545",
"v 	c #080808",
"w 	c #9C9C9C",
"x 	c #B4B4B4",
"y 	c #2E2E2E",
"z 	c #0E0E0E",
"A 	c #010101",
"B 	c #5A5A5A",
"C 	c #171717",
"D 	c #272727",
"E 	c #1A1A1A",
"F 	c #747474",
"G 	c #444444",
"H 	c #191919",
"I 	c #040404",
"J 	c #666666",
"K 	c #777777",
"L 	c #8C8C8C",
"M 	c #ADADAD",
"N 	c #0D0D0D",
"O 	c #727272",
"P 	c #888888",
"Q 	c #111111",
"R 	c #161616",
"S 	c #484848",
"T 	c #2C2C2C",
"U 	c #8A8A8A",
"V 	c #8D8D8D",
"W 	c #A8A8A8",
"X 	c #414141",
"Y 	c #9F9F9F",
"Z 	c #1B1B1B",
"` 	c #868686",
" .	c #B9B9B9",
"..	c #707070",
"+.	c #989898",
"@.	c #4F4F4F",
"#.	c #3E3E3E",
"$.	c #9B9B9B",
"%.	c #848484",
"&.	c #919191",
"*.	c #5D5D5D",
"=.	c #7C7C7C",
"-.	c #C7C7C7",
";.	c #A1A1A1",
">.	c #959595",
",.	c #5C5C5C",
"'.	c #1F1F1F",
").	c #303030",
"!.	c #A4A4A4",
"~.	c #BFBFBF",
"{.	c #838383",
"].	c #4E4E4E",
"^.	c #0F0F0F",
"/.	c #030303",
"(.	c #3A3A3A",
"_.	c #9E9E9E",
":.	c #3F3F3F",
"<.	c #202020",
"[.	c #545454",
"}.	c #BBBBBB",
"|.	c #363636",
"1.	c #5E5E5E",
"2.	c #222222",
"3.	c #A6A6A6",
"4.	c #B7B7B7",
"5.	c #656565",
"6.	c #A9A9A9",
"7.	c #696969",
"8.	c #8B8B8B",
"9.	c #A7A7A7",
"0.	c #7B7B7B",
"a.	c #9D9D9D",
"b.	c #AAAAAA",
". . . . . . . . . . . . . . . . +                                   ",
". . . . . . . . . . . . . . . . +                                   ",
". . + + + + + + + + + + + + + + +                                   ",
". . +                                                               ",
". . +                                                               ",
". . +                                                               ",
". . +                                 @ # $ % & * @                 ",
". . +                             = - ; > , ' ) ! & @               ",
". . +                         @ ~ { ] ^ / ( ( ( _ > :               ",
". . +                       < [ } | 1 ( ( ( ( ( 2 . 3 =             ",
". . +                     4 5 6 7 ( ( ( ( ( ( ( 8 . . ( @           ",
". . +                   9 ; 0 a ( ( ( ( ( ( ( b c . . d e           ",
". . +                 @ f g 1 ( ( ( ( ( ( ( h i . . . . j k         ",
". . +               @ l m n ( ( ( ( ( ( ( b } . . . . o p q         ",
". . +           @ r s . ' ( ( ( ( ( ( t u c . . . . v % p w 9       ",
". . +         x h y z A ; ( ( ( ( ( B C . . . . . c [ p p p 1 @     ",
"+ + +       < D v . . i E F a h G H . . . . . . I J p p p K c L     ",
"            M { . . . v c . . . . . . . . . . N O p p p P Q . R +   ",
"            % z . . . . S . . . . . . . . . T U p p p V 6 . . . W   ",
"          @ X . . . . y Y ) . . . . . . Z h p p p p ` C . . . A #   ",
"           .T . . . . o k W c . . } ' ..+.p p p p [ N . . . . @.@   ",
"          - g . . . . #.@ @ $./ %.+.p p p p p &.; A . . . . z e     ",
"        @ *.. . . . . =.@   -.;.p p p p p >.,.z . . . . . c l @     ",
"        9 '.. . . . ).!.      ~.p p p {.].^.. . . . . . /.L @       ",
"        # y . . . . o k       @ >.(.H . . . . . . . . C _.@         ",
"        q { . y { . :.@         4 <.. . . . . . . A [.}.            ",
"        e |.z 1.2.. =.@           Y I . . . . c ].3.@               ",
"        M y o 4.5.] !.            @ 6.7.[.J 8.# @                   ",
"        9.. 0.@ a.. k                 @ @ @                         ",
"        ;.6 ~.  k @.@                                               ",
"        # b.      _.                                                ",
"                                                                    "};
