/* XPM */
static char * paintbrush_xpm[] = {
"32 32 120 2",
"  	c None",
". 	c #000000",
"+ 	c #C3C3C3",
"@ 	c #ACACAC",
"# 	c #848484",
"$ 	c #888888",
"% 	c #B1B1B1",
"& 	c #A3A3A3",
"* 	c #4A4A4A",
"= 	c #303030",
"- 	c #2A2A2A",
"; 	c #494949",
"> 	c #A7A7A7",
", 	c #9C9C9C",
"' 	c #333333",
") 	c #2C2C2C",
"! 	c #252525",
"~ 	c #9B9B9B",
"{ 	c #272727",
"] 	c #2D2D2D",
"^ 	c #9A9A9A",
"/ 	c #999999",
"( 	c #313131",
"_ 	c #989898",
": 	c #262626",
"< 	c #959595",
"[ 	c #2F2F2F",
"} 	c #969696",
"| 	c #BBBBBB",
"1 	c #B2B2B2",
"2 	c #7E7E7E",
"3 	c #323232",
"4 	c #7F7F7F",
"5 	c #B8B8B8",
"6 	c #BABABA",
"7 	c #ADADAD",
"8 	c #A6A6A6",
"9 	c #979797",
"0 	c #8A8A8A",
"a 	c #6D6D6D",
"b 	c #373737",
"c 	c #6E6E6E",
"d 	c #8B8B8B",
"e 	c #A5A5A5",
"f 	c #AEAEAE",
"g 	c #525252",
"h 	c #4F4F4F",
"i 	c #A1A1A1",
"j 	c #7B7B7B",
"k 	c #383838",
"l 	c #2E2E2E",
"m 	c #202020",
"n 	c #767676",
"o 	c #353535",
"p 	c #1E1E1E",
"q 	c #868686",
"r 	c #717171",
"s 	c #1C1C1C",
"t 	c #141414",
"u 	c #B9B9B9",
"v 	c #343434",
"w 	c #090909",
"x 	c #A4A4A4",
"y 	c #AAAAAA",
"z 	c #404040",
"A 	c #040404",
"B 	c #656565",
"C 	c #424242",
"D 	c #0B0B0B",
"E 	c #666666",
"F 	c #050505",
"G 	c #242424",
"H 	c #0C0C0C",
"I 	c #393939",
"J 	c #292929",
"K 	c #060606",
"L 	c #3C3C3C",
"M 	c #131313",
"N 	c #474747",
"O 	c #0D0D0D",
"P 	c #4C4C4C",
"Q 	c #2B2B2B",
"R 	c #464646",
"S 	c #171717",
"T 	c #434343",
"U 	c #363636",
"V 	c #565656",
"W 	c #070707",
"X 	c #4D4D4D",
"Y 	c #5C5C5C",
"Z 	c #181818",
"` 	c #414141",
" .	c #444444",
"..	c #3B3B3B",
"+.	c #5F5F5F",
"@.	c #080808",
"#.	c #555555",
"$.	c #646464",
"%.	c #545454",
"&.	c #676767",
"*.	c #6C6C6C",
"=.	c #1F1F1F",
"-.	c #5B5B5B",
";.	c #454545",
">.	c #6F6F6F",
",.	c #626262",
"'.	c #747474",
").	c #777777",
"!.	c #6A6A6A",
"~.	c #3E3E3E",
"{.	c #7C7C7C",
"].	c #6B6B6B",
"^.	c #BEBEBE",
"/.	c #ABABAB",
"(.	c #A8A8A8",
"_.	c #AFAFAF",
":.	c #A9A9A9",
"<.	c #B3B3B3",
"[.	c #B0B0B0",
"}.	c #BDBDBD",
". . . . . . . . . . . . . . . . +                               ",
". . . . . . . . . . . . . . . . +                               ",
". . + + + + + + + + + + + + + + +                               ",
". . +                                 @ # $ %                   ",
". . +                               & * = - ; >                 ",
". . +                               , = ' ) ! ~                 ",
". . +                               ~ = ' ) { ~                 ",
". . +                               ~ = ' ] ! ~                 ",
". . +                               ^ = ' ] ! ^                 ",
". . +                               / ( ' ] ! /                 ",
". . +                               _ ( ' ] ! /                 ",
". . +                               _ ( ' ] : _                 ",
". . +                               < ( ' [ - }                 ",
". . +                           | 1 2 3 ' ( [ 4 5 6             ",
". . +                     7 8 9 0 a b ' ' ' ( ' c d _ e f       ",
". . +                   ^ g [ 3 3 ' ' ' ' ' ' ' 3 ( = - h i     ",
"+ + +                   j k ' ' ' ' ' ' ' ' ' ' ' ' 3 l m 0     ",
"                        n o l l l l l l l l l l l l ] - p q 6   ",
"                        r : p p p p p p p p p p p p p s t # u   ",
"                        < v w w w w w w w w w w w w w w h x     ",
"                        y z A A A A A A A A A A A A A A B f     ",
"                        @ C A D A D D A A A A D A A D A E 7     ",
"                        @ C p ( F G [ F F F H I H H G J E 7     ",
"                        @ C { z K J L M K K M N M O = b E 7     ",
"                        @ C = P K Q R { K K p g S O I C E 7     ",
"                        @ T U V W l X 3 W W ! Y Z M ` P B 7     ",
"                        @  ...+.@.= #...@.@.- $.s t ; %.B 7     ",
"                        @  .` &.@.3 Y  .@.@.= *.=.Z h -.B 7     ",
"                        @  .;.>.@.3 ,.* @.@.v '.=.Z %.,.B 7     ",
"                        @ ; P ).s ..!.%.Z s ~.{.) { Y ].&.7     ",
"                        ^.y /.1 8 (._.@ 8 8 :.<.> > 7 [._.}.    ",
"                                                                "};
