/* XPM */
static char * pencil_xpm[] = {
"32 32 65 1",
" 	c None",
".	c #000000",
"+	c #C3C3C3",
"@	c #C1C1C1",
"#	c #A5A5A5",
"$	c #A4A4A4",
"%	c #C4C4C4",
"&	c #9E9E9E",
"*	c #484848",
"=	c #505050",
"-	c #9F9F9F",
";	c #C6C6C6",
">	c #9D9D9D",
",	c #4D4D4D",
"'	c #9B9B9B",
")	c #C0C0C0",
"!	c #C8C8C8",
"~	c #4A4A4A",
"{	c #464646",
"]	c #979797",
"^	c #4B4B4B",
"/	c #080808",
"(	c #5C5C5C",
"_	c #ADADAD",
":	c #C7C7C7",
"<	c #3F3F3F",
"[	c #9C9C9C",
"}	c #4E4E4E",
"|	c #424242",
"1	c #9A9A9A",
"2	c #A1A1A1",
"3	c #4F4F4F",
"4	c #A2A2A2",
"5	c #989898",
"6	c #C5C5C5",
"7	c #545454",
"8	c #999999",
"9	c #555555",
"0	c #A3A3A3",
"a	c #C2C2C2",
"b	c #565656",
"c	c #797979",
"d	c #1C1C1C",
"e	c #B1B1B1",
"f	c #AFAFAF",
"g	c #595959",
"h	c #0E0E0E",
"i	c #909090",
"j	c #515151",
"k	c #A6A6A6",
"l	c #A0A0A0",
"m	c #B9B9B9",
"n	c #6C6C6C",
"o	c #ACACAC",
"p	c #575757",
"q	c #A7A7A7",
"r	c #BEBEBE",
"s	c #7C7C7C",
"t	c #181818",
"u	c #8C8C8C",
"v	c #717171",
"w	c #8A8A8A",
"x	c #B3B3B3",
"y	c #AAAAAA",
"z	c #B6B6B6",
"................+               ",
"................+               ",
"..+++++++++++++++               ",
"..+                             ",
"..+                             ",
"..+                             ",
"..+                             ",
"..+                             ",
"..+                     @#$     ",
"..+                    %&*=-    ",
"..+                   ;>*..,')  ",
"..+                  !&~....{]  ",
"..+                 !'^/.....(_ ",
"..+                :>^/.....<[  ",
"..+               ;&}/.....|1@  ",
"..+              %23...../{1%   ",
"+++              4=...../*56    ",
"                $7...../*5;     ",
"               $7......*8;      ",
"              $9......{[6       ",
"             09......{&%        ",
"            $7......~2a         ",
"           4b/.....^0           ",
"          %cd.....,0            ",
"         efegh...}4             ",
"         ijk_}//,l6             ",
"        mn.~ok*}&;              ",
"        '|./pfq'!               ",
"       rs..t,u;                 ",
"       0b3vwlx                  ",
"       y]$z                     ",
"                                "};
